<?xml version="1.0" encoding="UTF-8"?>
<svg version="1.1" xmlns="http://www.w3.org/2000/svg" width="700" height="414">
<path d="M0 0 C20.13258918 -0.09276528 40.2651176 -0.16406497 60.39787674 -0.20724869 C69.74677069 -0.22783641 79.09552904 -0.25588419 88.44433594 -0.30175781 C96.59682395 -0.34174201 104.74921371 -0.36746034 112.90179706 -0.37635398 C117.21488028 -0.3815492 121.52768255 -0.39367995 125.84067535 -0.42292023 C129.90858138 -0.45027286 133.97609338 -0.45840539 138.04408264 -0.45243073 C139.52906696 -0.45352216 141.01406584 -0.46135723 142.49897003 -0.4768219 C157.2522625 -0.62280476 169.13404785 2.51500673 180 12.9140625 C184.2125084 17.47156082 187.22231961 22.47023996 190 28 C189.3709375 28.32871094 188.741875 28.65742188 188.09375 28.99609375 C178.73709005 34.19580387 172.64309969 39.77811984 169.63690758 50.16076279 C168.56538359 54.93745392 168.5607687 59.63049673 168.56762695 64.50830078 C168.5574353 65.61191452 168.54724365 66.71552826 168.53674316 67.85258484 C168.50677164 71.4668801 168.49737129 75.08090963 168.48828125 78.6953125 C168.47142286 81.21451691 168.45327107 83.73371296 168.43388367 86.25289917 C168.39133532 92.18471662 168.36174157 98.11650725 168.33856028 104.04842365 C168.31141157 110.8079785 168.26750655 117.56739308 168.22227156 124.32684731 C168.12968294 138.21783795 168.06009612 152.10883275 168 166 C175.59 166 183.18 166 191 166 C189.1184359 177.28938457 181.63609758 186.97265335 172.55078125 193.85546875 C162.00617489 200.55965333 151.92906798 201.43672975 139.63623047 201.34057617 C138.10768145 201.33972844 136.5791312 201.34020788 135.05058289 201.34190369 C130.92929675 201.34275938 126.8082761 201.32520318 122.6870513 201.30418181 C118.36959802 201.28534351 114.0521377 201.28365896 109.73464966 201.28010559 C101.57154395 201.27080604 93.40855973 201.24622076 85.24550736 201.21605712 C74.20583663 201.17615524 63.16613235 201.16004133 52.12640762 201.14255047 C34.75084754 201.11439801 17.37554374 201.05461463 0 201 C0 172.29 0 143.58 0 114 C5.28 113.34 10.56 112.68 16 112 C19.23816524 110.7309893 21.28978845 109.87987713 24 108 C25.546875 107.01 25.546875 107.01 27.125 106 C33.53848499 100.11951878 36.24851359 92.40851422 36.67196655 83.9458313 C36.74653835 80.46104834 36.73808582 76.98415753 36.67236328 73.49926758 C36.62488975 70.80624606 36.63131061 68.11716656 36.64453125 65.42382812 C36.63338185 63.68487259 36.61916467 61.94593344 36.6015625 60.20703125 C36.60338531 59.4161763 36.60520813 58.62532135 36.60708618 57.8105011 C36.38973996 49.12968373 32.88462135 42.04454815 26.953125 35.7890625 C18.89007792 28.40331138 10.52441487 27.97284507 0 27 C0 18.09 0 9.18 0 0 Z M45 45 C45 81.63 45 118.26 45 156 C69.3478125 156.12375 69.3478125 156.12375 94.1875 156.25 C99.31047607 156.28641602 104.43345215 156.32283203 109.71166992 156.36035156 C114.30868756 156.37373029 114.30868756 156.37373029 118.90571594 156.3817749 C120.95136495 156.38791243 122.99699959 156.40197095 125.04255676 156.42230225 C128.14345391 156.45157892 131.24346778 156.45562423 134.34448242 156.45410156 C135.25395976 156.468494 136.1634371 156.48288643 137.10047436 156.497715 C141.2419291 156.47048893 143.42959191 156.35301474 147.0226593 154.1293335 C160.57670122 139.53342927 156.42200052 103.56322459 155.75 85.375 C155.4140571 78.19836074 154.79316319 71.10038423 153.6875 64 C153.58211914 63.30052246 153.47673828 62.60104492 153.36816406 61.88037109 C152.3599641 56.20821051 150.50430103 50.69022011 146.52098083 46.41117859 C142.61747804 44.22610066 138.85762033 44.60741186 134.45800781 44.65942383 C132.98532503 44.65888142 132.98532503 44.65888142 131.48289108 44.65832806 C128.30609469 44.66056654 125.12982689 44.68340943 121.953125 44.70703125 C119.99137628 44.71144229 118.02962405 44.71450271 116.06787109 44.71618652 C108.79519354 44.73191292 101.52259157 44.77379657 94.25 44.8125 C69.87125 44.9053125 69.87125 44.9053125 45 45 Z " fill="#DFB357" transform="translate(260,107)"/>
<path d="M0 0 C1.47583955 0.0001591 2.95168467 0.00585225 4.42749023 0.01586914 C5.20293686 0.01728409 5.97838348 0.01869904 6.77732849 0.02015686 C9.26361893 0.02577194 11.74982059 0.03832693 14.23608398 0.05102539 C15.91772331 0.05603845 17.59936405 0.06060169 19.28100586 0.06469727 C23.41189965 0.07574626 27.54272674 0.09302094 31.67358398 0.11352539 C31.23034094 9.00693408 30.53625122 17.53864061 28.54858398 26.23852539 C28.22144409 27.69585083 28.22144409 27.69585083 27.88769531 29.18261719 C15.6882081 81.51277766 -16.60991658 127.69149702 -62.10693359 156.5168457 C-109.6633015 185.88406037 -165.26974253 195.24147739 -219.8059082 182.72290039 C-254.281728 174.38779324 -287.96898035 157.41402868 -312.78344727 131.65649414 C-314.49970104 129.88731697 -314.49970104 129.88731697 -317.32641602 127.67602539 C-321.09929176 124.45336069 -324.16151227 120.92552841 -327.32641602 117.11352539 C-327.97271973 116.35168945 -327.97271973 116.35168945 -328.63208008 115.57446289 C-340.88962297 101.08444655 -350.23619597 85.23860389 -358.32641602 68.11352539 C-358.85493164 67.01266602 -359.38344727 65.91180664 -359.92797852 64.77758789 C-363.32641602 57.54404215 -363.32641602 57.54404215 -363.32641602 54.11352539 C-350.45641602 54.11352539 -337.58641602 54.11352539 -324.32641602 54.11352539 C-321.35641602 59.72352539 -318.38641602 65.33352539 -315.32641602 71.11352539 C-289.35426371 109.73877754 -252.14283691 137.5844714 -206.01391602 146.89526367 C-162.14475273 155.36219913 -116.21839707 147.48020013 -78.65063477 122.74243164 C-40.57116414 96.71840251 -14.48282422 57.43625226 -5.93139648 12.01538086 C-5.45377642 9.14610145 -5.04924738 6.27280645 -4.68579102 3.38696289 C-4.1154099 -0.22131767 -3.82067454 0.13039366 0 0 Z " fill="#DFB256" transform="translate(523.326416015625,222.886474609375)"/>
<path d="M0 0 C0.68429077 -0.00095673 1.36858154 -0.00191345 2.0736084 -0.00289917 C3.52286877 -0.0035808 4.97213218 -0.00172773 6.42138672 0.00244141 C8.64687928 0.00778998 10.87217001 0.0024959 13.09765625 -0.00390625 C14.50260461 -0.00324547 15.90755285 -0.0019643 17.3125 0 C18.59962891 0.00112793 19.88675781 0.00225586 21.21289062 0.00341797 C24.15625 0.1328125 24.15625 0.1328125 25.15625 1.1328125 C25.25034479 3.15775481 25.27368122 5.1860112 25.26977539 7.21313477 C25.26965454 8.53269165 25.26953369 9.85224854 25.26940918 11.21179199 C25.26437269 12.62426805 25.25920606 14.03674365 25.25390625 15.44921875 C25.25289917 16.72599487 25.25189209 18.002771 25.25085449 19.3182373 C25.24560266 24.11060477 25.23164156 28.90295949 25.21875 33.6953125 C25.1878125 49.751875 25.1878125 49.751875 25.15625 66.1328125 C67.72625 65.8028125 110.29625 65.4728125 154.15625 65.1328125 C154.15625 58.2028125 154.15625 51.2728125 154.15625 44.1328125 C121.15625 44.1328125 88.15625 44.1328125 54.15625 44.1328125 C54.15625 34.2328125 54.15625 24.3328125 54.15625 14.1328125 C67.82149124 14.0649578 81.48662005 14.00995063 95.15199184 13.97737598 C101.49779471 13.96173953 107.84347605 13.94053788 114.18920898 13.90649414 C120.31650546 13.87382907 126.44368524 13.85594429 132.57106209 13.84818077 C134.90536396 13.84265013 137.23965965 13.83185017 139.57391167 13.81562233 C142.8507643 13.79375346 146.12713853 13.79084958 149.40405273 13.79223633 C150.36287354 13.7814505 151.32169434 13.77066467 152.30957031 13.759552 C162.75833854 13.80720429 169.43059304 16.57152906 176.984375 23.78515625 C184.8187186 32.25357442 184.45421848 41.25551266 184.5612793 52.15625 C184.58274148 53.79318491 184.61670298 55.43000879 184.66381836 57.06640625 C184.98959046 68.51132508 184.32879696 77.8749214 176.53173828 87.04296875 C167.1344946 95.89382944 156.36918127 95.67769916 144.21484375 95.5234375 C142.47893428 95.51596605 140.7430163 95.51027739 139.00709534 95.50628662 C134.4646324 95.49110136 129.92269079 95.45188203 125.38043213 95.4074707 C119.91631593 95.35912099 114.45202425 95.34095006 108.98775482 95.31765747 C100.7102253 95.27902567 92.43383695 95.20232338 84.15625 95.1328125 C84.15625 112.2928125 84.15625 129.4528125 84.15625 147.1328125 C74.25625 147.1328125 64.35625 147.1328125 54.15625 147.1328125 C54.15625 129.9728125 54.15625 112.8128125 54.15625 95.1328125 C44.58625 95.1328125 35.01625 95.1328125 25.15625 95.1328125 C25.16148682 97.15720459 25.16672363 99.18159668 25.17211914 101.26733398 C25.18865688 107.94093269 25.19972196 114.61453228 25.20806217 121.28814602 C25.21329041 125.33606992 25.22038699 129.38397291 25.23168945 133.43188477 C25.24252043 137.33517221 25.24852728 141.23843949 25.25112724 145.1417408 C25.25298111 146.63414897 25.256601 148.12655598 25.26198006 149.61895561 C25.26919331 151.70229389 25.27024083 153.78554781 25.26977539 155.86889648 C25.271996 157.05692368 25.27421661 158.24495087 25.27650452 159.46897888 C25.15625 162.1328125 25.15625 162.1328125 24.15625 163.1328125 C21.87677208 163.2330218 19.59417865 163.26362553 17.3125 163.265625 C16.28606384 163.26706009 16.28606384 163.26706009 15.2388916 163.26852417 C13.78963123 163.2692058 12.34036782 163.26735273 10.89111328 163.26318359 C8.66562072 163.25783502 6.44032999 163.2631291 4.21484375 163.26953125 C2.80989539 163.26887047 1.40494715 163.2675893 0 163.265625 C-1.28712891 163.26449707 -2.57425781 163.26336914 -3.90039062 163.26220703 C-6.84375 163.1328125 -6.84375 163.1328125 -7.84375 162.1328125 C-7.94277902 160.05950853 -7.97007326 157.98277202 -7.97073364 155.90710449 C-7.97229363 155.2495037 -7.97385362 154.59190291 -7.97546089 153.91437483 C-7.97947266 151.69484737 -7.97628058 149.47538743 -7.97314453 147.25585938 C-7.97449849 145.67114725 -7.9762784 144.08643545 -7.97845459 142.50172424 C-7.98302952 138.18573046 -7.98123912 133.86976047 -7.9780755 129.55376625 C-7.97555221 125.04719603 -7.97788936 120.54062791 -7.97946167 116.03405762 C-7.98128346 108.46459587 -7.97887682 100.89514386 -7.97412109 93.32568359 C-7.96867846 84.56142824 -7.97044111 75.79719614 -7.9759475 67.03294134 C-7.98047838 59.52213768 -7.9811293 52.01134103 -7.97850883 44.50053644 C-7.97694591 40.00852737 -7.97675268 35.51652925 -7.98004532 31.02452087 C-7.98292366 26.80242252 -7.98094902 22.58035429 -7.97515106 18.3582592 C-7.97382327 16.80417366 -7.97421791 15.25008561 -7.97641373 13.69600105 C-7.97912448 11.58347273 -7.97574506 9.47104249 -7.97073364 7.35852051 C-7.97035662 6.17347176 -7.96997959 4.988423 -7.96959114 3.76746368 C-7.7234541 -1.38574169 -4.46489348 0.00391265 0 0 Z " fill="#DFB358" transform="translate(109.84375,122.8671875)"/>
<path d="M0 0 C0.68429077 -0.00095673 1.36858154 -0.00191345 2.0736084 -0.00289917 C3.52286877 -0.0035808 4.97213218 -0.00172773 6.42138672 0.00244141 C8.64687928 0.00778998 10.87217001 0.0024959 13.09765625 -0.00390625 C14.50260461 -0.00324547 15.90755285 -0.0019643 17.3125 0 C18.59962891 0.00112793 19.88675781 0.00225586 21.21289062 0.00341797 C24.15625 0.1328125 24.15625 0.1328125 25.15625 1.1328125 C25.25527902 3.20611647 25.28257326 5.28285298 25.28323364 7.35852051 C25.28479363 8.0161213 25.28635362 8.67372209 25.28796089 9.35125017 C25.29197266 11.57077763 25.28878058 13.79023757 25.28564453 16.00976562 C25.28699849 17.59447775 25.2887784 19.17918955 25.29095459 20.76390076 C25.29552952 25.07989454 25.29373912 29.39586453 25.2905755 33.71185875 C25.28805221 38.21842897 25.29038936 42.72499709 25.29196167 47.23156738 C25.29378346 54.80102913 25.29137682 62.37048114 25.28662109 69.93994141 C25.28117846 78.70419676 25.28294111 87.46842886 25.2884475 96.23268366 C25.29297838 103.74348732 25.2936293 111.25428397 25.29100883 118.76508856 C25.28944591 123.25709763 25.28925268 127.74909575 25.29254532 132.24110413 C25.29542366 136.46320248 25.29344902 140.68527071 25.28765106 144.9073658 C25.28632327 146.46145134 25.28671791 148.01553939 25.28891373 149.56962395 C25.29162448 151.68215227 25.28824506 153.79458251 25.28323364 155.90710449 C25.2826681 157.68467762 25.2826681 157.68467762 25.28209114 159.49816132 C25.15625 162.1328125 25.15625 162.1328125 24.15625 163.1328125 C21.87677208 163.2330218 19.59417865 163.26362553 17.3125 163.265625 C16.28606384 163.26706009 16.28606384 163.26706009 15.2388916 163.26852417 C13.78963123 163.2692058 12.34036782 163.26735273 10.89111328 163.26318359 C8.66562072 163.25783502 6.44032999 163.2631291 4.21484375 163.26953125 C2.80989539 163.26887047 1.40494715 163.2675893 0 163.265625 C-1.28712891 163.26449707 -2.57425781 163.26336914 -3.90039062 163.26220703 C-6.84375 163.1328125 -6.84375 163.1328125 -7.84375 162.1328125 C-7.93792773 160.04662228 -7.96117878 157.95720773 -7.95727539 155.86889648 C-7.95739593 155.20465951 -7.95751646 154.54042253 -7.95764065 153.85605717 C-7.95689176 151.69697329 -7.94926468 149.53797477 -7.94140625 147.37890625 C-7.93989563 145.40476746 -7.93989563 145.40476746 -7.93835449 143.39074707 C-7.93310248 138.45059341 -7.91914139 133.51045213 -7.90625 128.5703125 C-7.885625 117.5359375 -7.865 106.5015625 -7.84375 95.1328125 C-46.45375 95.1328125 -85.06375 95.1328125 -124.84375 95.1328125 C-124.84375 112.2928125 -124.84375 129.4528125 -124.84375 147.1328125 C-134.74375 147.1328125 -144.64375 147.1328125 -154.84375 147.1328125 C-154.91162881 133.35445809 -154.96662574 119.57621544 -154.99918652 105.7977314 C-155.01481701 99.39927056 -155.0360077 93.00093044 -155.07006836 86.60253906 C-155.10275477 80.42336725 -155.12062269 74.24431128 -155.12838173 68.06505966 C-155.13390856 65.71204684 -155.14470101 63.35904009 -155.16094017 61.00607681 C-155.18283747 57.70069107 -155.18571174 54.39577907 -155.18432617 51.09033203 C-155.195112 50.12575577 -155.20589783 49.1611795 -155.2170105 48.16737366 C-155.17215179 38.22468031 -153.00098398 29.35201388 -145.84375 22.1328125 C-138.09687172 15.88533001 -131.26624637 13.82425883 -121.44189453 13.90576172 C-120.51442917 13.90546967 -119.58696381 13.90517761 -118.63139343 13.90487671 C-115.57968645 13.90626499 -112.5282266 13.92180263 -109.4765625 13.9375 C-107.35521579 13.94123191 -105.23386736 13.94407804 -103.11251831 13.94607544 C-97.53942067 13.95369785 -91.9664279 13.97333444 -86.39337158 13.9954834 C-80.70236632 14.01597179 -75.01134405 14.02508356 -69.3203125 14.03515625 C-58.16140494 14.05658161 -47.00260261 14.09175247 -35.84375 14.1328125 C-35.84375 24.0328125 -35.84375 33.9328125 -35.84375 44.1328125 C-64.88375 44.4628125 -93.92375 44.7928125 -123.84375 45.1328125 C-124.17375 52.0628125 -124.50375 58.9928125 -124.84375 66.1328125 C-86.23375 66.1328125 -47.62375 66.1328125 -7.84375 66.1328125 C-7.88336309 44.78624235 -7.88336309 44.78624235 -7.93383789 23.43969727 C-7.93675674 20.77620483 -7.93930537 18.11271195 -7.94140625 15.44921875 C-7.94532631 14.40446632 -7.94532631 14.40446632 -7.94932556 13.33860779 C-7.95660608 11.29679471 -7.95708839 9.25496082 -7.95727539 7.21313477 C-7.959496 6.06063736 -7.96171661 4.90813995 -7.96400452 3.72071838 C-7.72657193 -1.38888744 -4.40709006 0.003862 0 0 Z " fill="#DFB358" transform="translate(585.84375,122.8671875)"/>
<path d="M0 0 C1.88342846 1.80524841 3.7135209 3.64489847 5.5234375 5.5234375 C7.09766332 7.159558 7.09766332 7.159558 9.5 8.9375 C13.12669842 11.9295262 15.99711937 15.39214341 19 19 C19.42700195 19.50402344 19.85400391 20.00804688 20.29394531 20.52734375 C32.79858191 35.34119895 42.80592152 51.4497021 51 69 C51.45375 69.95261719 51.9075 70.90523438 52.375 71.88671875 C55 77.546875 55 77.546875 55 81 C42.79 81 30.58 81 18 81 C16.535625 78.298125 15.07125 75.59625 13.5625 72.8125 C-1.88990497 44.82142786 -23.26696824 22.0098181 -51 6 C-52.08023437 5.35417969 -53.16046875 4.70835938 -54.2734375 4.04296875 C-71.62322761 -6.01092307 -91.24473333 -12.02774198 -111 -15 C-112.17820312 -15.19078125 -113.35640625 -15.3815625 -114.5703125 -15.578125 C-121.27620554 -16.37201541 -128.06824127 -16.24445883 -134.8125 -16.25 C-135.91806244 -16.25101212 -135.91806244 -16.25101212 -137.04595947 -16.25204468 C-148.61334011 -16.23523847 -159.70283057 -15.60743393 -171 -13 C-171.76344727 -12.83371094 -172.52689453 -12.66742188 -173.31347656 -12.49609375 C-203.533381 -5.80534 -230.91684678 9.41731484 -253 31 C-254.36511719 32.27230469 -254.36511719 32.27230469 -255.7578125 33.5703125 C-269.91413949 47.08133684 -280.28701029 63.57402058 -289 81 C-301.54 81 -314.08 81 -327 81 C-318.81661424 61.12606314 -318.81661424 61.12606314 -314.6875 53.8125 C-314.22166504 52.9779126 -313.75583008 52.1433252 -313.27587891 51.28344727 C-302.21879144 31.82230026 -287.31830819 13.2545479 -270 -1 C-269.13246094 -1.75539062 -268.26492188 -2.51078125 -267.37109375 -3.2890625 C-197.07125201 -63.76003156 -91.04490335 -66.34639913 0 0 Z " fill="#DFB257" transform="translate(487,53)"/>
<path d="M0 0 C10.56 0 21.12 0 32 0 C32 48.18 32 96.36 32 146 C21.44 146 10.88 146 0 146 C0 97.82 0 49.64 0 0 Z " fill="#DFB255" transform="translate(619,131)"/>
<path d="M0 0 C10.56 0 21.12 0 32 0 C32 48.18 32 96.36 32 146 C21.44 146 10.88 146 0 146 C0 97.82 0 49.64 0 0 Z " fill="#DFB255" transform="translate(62,131)"/>
<path d="M0 0 C10.56 0 21.12 0 32 0 C32 27.39 32 54.78 32 83 C21.44 83 10.88 83 0 83 C0 55.61 0 28.22 0 0 Z " fill="#DFB255" transform="translate(660,162)"/>
<path d="M0 0 C10.56 0 21.12 0 32 0 C32 27.39 32 54.78 32 83 C21.44 83 10.88 83 0 83 C0 55.61 0 28.22 0 0 Z " fill="#DFB255" transform="translate(21,162)"/>
</svg>
